<mxfile host="app.diagrams.net" modified="2021-02-15T03:08:50.524Z" agent="5.0 (Macintosh; Intel Mac OS X 10_14_1) AppleWebKit/537.36 (KHTML, like Gecko) Chrome/88.0.4324.150 Safari/537.36" etag="HZVIL2WEcH6JD_XiEzFD" version="14.3.1" type="github">
  <diagram id="wPHcMQBq6PbzHlbRGtMq" name="Page-1">
    <mxGraphModel dx="946" dy="566" grid="1" gridSize="10" guides="1" tooltips="1" connect="1" arrows="1" fold="1" page="1" pageScale="1" pageWidth="850" pageHeight="1100" math="0" shadow="0">
      <root>
        <mxCell id="0" />
        <mxCell id="1" parent="0" />
        <mxCell id="o6utsmC7BySOLrKgGucc-4" value="" style="endArrow=classic;html=1;exitX=1.4;exitY=0.047;exitDx=0;exitDy=0;exitPerimeter=0;entryX=0;entryY=0.045;entryDx=0;entryDy=0;entryPerimeter=0;" parent="1" edge="1">
          <mxGeometry width="50" height="50" relative="1" as="geometry">
            <mxPoint x="174" y="121.3599999999999" as="sourcePoint" />
            <mxPoint x="360" y="119.59999999999991" as="targetPoint" />
          </mxGeometry>
        </mxCell>
        <mxCell id="o6utsmC7BySOLrKgGucc-5" value="User" style="text;html=1;strokeColor=none;fillColor=none;align=center;verticalAlign=middle;whiteSpace=wrap;rounded=0;" parent="1" vertex="1">
          <mxGeometry x="145" y="50" width="40" height="20" as="geometry" />
        </mxCell>
        <mxCell id="o6utsmC7BySOLrKgGucc-6" value="Server" style="text;html=1;strokeColor=none;fillColor=none;align=center;verticalAlign=middle;whiteSpace=wrap;rounded=0;" parent="1" vertex="1">
          <mxGeometry x="345" y="50" width="40" height="20" as="geometry" />
        </mxCell>
        <mxCell id="o6utsmC7BySOLrKgGucc-7" value="Register name, email, DOB, school for an account" style="text;html=1;strokeColor=none;fillColor=none;align=center;verticalAlign=middle;whiteSpace=wrap;rounded=0;" parent="1" vertex="1">
          <mxGeometry x="185" y="90" width="160" height="20" as="geometry" />
        </mxCell>
        <mxCell id="dMHL_w5IgM5WXoV93yeF-1" value="" style="endArrow=none;dashed=1;html=1;exitX=1.3;exitY=0.092;exitDx=0;exitDy=0;exitPerimeter=0;entryX=0;entryY=0.092;entryDx=0;entryDy=0;entryPerimeter=0;" parent="1" edge="1">
          <mxGeometry width="50" height="50" relative="1" as="geometry">
            <mxPoint x="173" y="160.96000000000004" as="sourcePoint" />
            <mxPoint x="360" y="160.96000000000004" as="targetPoint" />
          </mxGeometry>
        </mxCell>
        <mxCell id="dMHL_w5IgM5WXoV93yeF-2" value="Account created, email verification" style="text;html=1;strokeColor=none;fillColor=none;align=center;verticalAlign=middle;whiteSpace=wrap;rounded=0;" parent="1" vertex="1">
          <mxGeometry x="165" y="140" width="200" height="20" as="geometry" />
        </mxCell>
        <mxCell id="dMHL_w5IgM5WXoV93yeF-3" value="" style="endArrow=classic;html=1;exitX=1;exitY=0.136;exitDx=0;exitDy=0;exitPerimeter=0;entryX=0;entryY=0.138;entryDx=0;entryDy=0;entryPerimeter=0;" parent="1" edge="1">
          <mxGeometry width="50" height="50" relative="1" as="geometry">
            <mxPoint x="170" y="199.68000000000006" as="sourcePoint" />
            <mxPoint x="360" y="201.44000000000005" as="targetPoint" />
          </mxGeometry>
        </mxCell>
        <mxCell id="dMHL_w5IgM5WXoV93yeF-4" value="Sign in" style="text;html=1;strokeColor=none;fillColor=none;align=center;verticalAlign=middle;whiteSpace=wrap;rounded=0;" parent="1" vertex="1">
          <mxGeometry x="240" y="180" width="40" height="20" as="geometry" />
        </mxCell>
        <mxCell id="dMHL_w5IgM5WXoV93yeF-6" value="" style="endArrow=none;dashed=1;html=1;exitX=1.2;exitY=0.18;exitDx=0;exitDy=0;exitPerimeter=0;entryX=0.2;entryY=0.182;entryDx=0;entryDy=0;entryPerimeter=0;" parent="1" edge="1">
          <mxGeometry width="50" height="50" relative="1" as="geometry">
            <mxPoint x="172" y="238.4000000000001" as="sourcePoint" />
            <mxPoint x="362" y="240.16000000000008" as="targetPoint" />
          </mxGeometry>
        </mxCell>
        <mxCell id="dMHL_w5IgM5WXoV93yeF-7" value="Coach is signed in" style="text;html=1;strokeColor=none;fillColor=none;align=center;verticalAlign=middle;whiteSpace=wrap;rounded=0;" parent="1" vertex="1">
          <mxGeometry x="160" y="220" width="200" height="20" as="geometry" />
        </mxCell>
        <mxCell id="dMHL_w5IgM5WXoV93yeF-8" value="" style="endArrow=classic;html=1;exitX=1.2;exitY=0.227;exitDx=0;exitDy=0;exitPerimeter=0;entryX=-0.1;entryY=0.227;entryDx=0;entryDy=0;entryPerimeter=0;" parent="1" edge="1">
          <mxGeometry width="50" height="50" relative="1" as="geometry">
            <mxPoint x="172" y="279.76" as="sourcePoint" />
            <mxPoint x="359" y="279.76" as="targetPoint" />
          </mxGeometry>
        </mxCell>
        <mxCell id="dMHL_w5IgM5WXoV93yeF-9" value="" style="endArrow=none;dashed=1;html=1;exitX=1;exitY=0.273;exitDx=0;exitDy=0;exitPerimeter=0;entryX=0;entryY=0.272;entryDx=0;entryDy=0;entryPerimeter=0;" parent="1" edge="1">
          <mxGeometry width="50" height="50" relative="1" as="geometry">
            <mxPoint x="170" y="320.24" as="sourcePoint" />
            <mxPoint x="360" y="319.3600000000001" as="targetPoint" />
          </mxGeometry>
        </mxCell>
        <mxCell id="dMHL_w5IgM5WXoV93yeF-10" value="Input student information to link account" style="text;html=1;strokeColor=none;fillColor=none;align=center;verticalAlign=middle;whiteSpace=wrap;rounded=0;" parent="1" vertex="1">
          <mxGeometry x="165" y="250" width="200" height="20" as="geometry" />
        </mxCell>
        <mxCell id="dMHL_w5IgM5WXoV93yeF-13" value="" style="endArrow=classic;html=1;exitX=1;exitY=0.227;exitDx=0;exitDy=0;exitPerimeter=0;entryX=0.1;entryY=0.227;entryDx=0;entryDy=0;entryPerimeter=0;" parent="1" edge="1">
          <mxGeometry width="50" height="50" relative="1" as="geometry">
            <mxPoint x="370" y="279.76" as="sourcePoint" />
            <mxPoint x="561" y="279.76" as="targetPoint" />
          </mxGeometry>
        </mxCell>
        <mxCell id="dMHL_w5IgM5WXoV93yeF-14" value="Ask student for access to account info" style="text;html=1;strokeColor=none;fillColor=none;align=center;verticalAlign=middle;whiteSpace=wrap;rounded=0;" parent="1" vertex="1">
          <mxGeometry x="370" y="250" width="190" height="20" as="geometry" />
        </mxCell>
        <mxCell id="dMHL_w5IgM5WXoV93yeF-15" value="" style="endArrow=none;dashed=1;html=1;exitX=1.5;exitY=0.273;exitDx=0;exitDy=0;exitPerimeter=0;entryX=-0.4;entryY=0.272;entryDx=0;entryDy=0;entryPerimeter=0;" parent="1" edge="1">
          <mxGeometry width="50" height="50" relative="1" as="geometry">
            <mxPoint x="375" y="320.24" as="sourcePoint" />
            <mxPoint x="556" y="319.3600000000001" as="targetPoint" />
          </mxGeometry>
        </mxCell>
        <mxCell id="dMHL_w5IgM5WXoV93yeF-16" value="Student allows info share" style="text;html=1;strokeColor=none;fillColor=none;align=center;verticalAlign=middle;whiteSpace=wrap;rounded=0;" parent="1" vertex="1">
          <mxGeometry x="370" y="290" width="190" height="20" as="geometry" />
        </mxCell>
        <mxCell id="dMHL_w5IgM5WXoV93yeF-18" value="" style="endArrow=none;dashed=1;html=1;exitX=1;exitY=0.364;exitDx=0;exitDy=0;exitPerimeter=0;entryX=-0.4;entryY=0.364;entryDx=0;entryDy=0;entryPerimeter=0;" parent="1" edge="1">
          <mxGeometry width="50" height="50" relative="1" as="geometry">
            <mxPoint x="170" y="400.31999999999994" as="sourcePoint" />
            <mxPoint x="356" y="400.31999999999994" as="targetPoint" />
          </mxGeometry>
        </mxCell>
        <mxCell id="dMHL_w5IgM5WXoV93yeF-19" value="" style="endArrow=classic;html=1;exitX=0.9;exitY=0.32;exitDx=0;exitDy=0;exitPerimeter=0;entryX=0;entryY=0.318;entryDx=0;entryDy=0;entryPerimeter=0;" parent="1" edge="1">
          <mxGeometry width="50" height="50" relative="1" as="geometry">
            <mxPoint x="169" y="361.5999999999999" as="sourcePoint" />
            <mxPoint x="360" y="359.84000000000015" as="targetPoint" />
          </mxGeometry>
        </mxCell>
        <mxCell id="dMHL_w5IgM5WXoV93yeF-20" value="Coach allowed access student info" style="text;html=1;strokeColor=none;fillColor=none;align=center;verticalAlign=middle;whiteSpace=wrap;rounded=0;" parent="1" vertex="1">
          <mxGeometry x="170" y="290" width="190" height="20" as="geometry" />
        </mxCell>
        <mxCell id="dMHL_w5IgM5WXoV93yeF-21" value="Student" style="text;html=1;strokeColor=none;fillColor=none;align=center;verticalAlign=middle;whiteSpace=wrap;rounded=0;" parent="1" vertex="1">
          <mxGeometry x="545" y="50" width="40" height="20" as="geometry" />
        </mxCell>
        <mxCell id="dMHL_w5IgM5WXoV93yeF-22" value="Check student information" style="text;html=1;strokeColor=none;fillColor=none;align=center;verticalAlign=middle;whiteSpace=wrap;rounded=0;" parent="1" vertex="1">
          <mxGeometry x="170" y="330" width="190" height="20" as="geometry" />
        </mxCell>
        <mxCell id="dMHL_w5IgM5WXoV93yeF-23" value="Give student game progress information" style="text;html=1;strokeColor=none;fillColor=none;align=center;verticalAlign=middle;whiteSpace=wrap;rounded=0;" parent="1" vertex="1">
          <mxGeometry x="165" y="370" width="200" height="20" as="geometry" />
        </mxCell>
        <mxCell id="dMHL_w5IgM5WXoV93yeF-24" value="" style="endArrow=classic;html=1;" parent="1" edge="1">
          <mxGeometry width="50" height="50" relative="1" as="geometry">
            <mxPoint x="450" y="510" as="sourcePoint" />
            <mxPoint x="450" y="510" as="targetPoint" />
            <Array as="points">
              <mxPoint x="450" y="510" />
            </Array>
          </mxGeometry>
        </mxCell>
        <mxCell id="dMHL_w5IgM5WXoV93yeF-25" value="" style="endArrow=classic;html=1;entryX=1;entryY=0.364;entryDx=0;entryDy=0;entryPerimeter=0;" parent="1" edge="1">
          <mxGeometry width="50" height="50" relative="1" as="geometry">
            <mxPoint x="180" y="400" as="sourcePoint" />
            <mxPoint x="170" y="400.31999999999994" as="targetPoint" />
          </mxGeometry>
        </mxCell>
        <mxCell id="dMHL_w5IgM5WXoV93yeF-26" value="" style="endArrow=classic;html=1;" parent="1" edge="1">
          <mxGeometry width="50" height="50" relative="1" as="geometry">
            <mxPoint x="180" y="320" as="sourcePoint" />
            <mxPoint x="170" y="320" as="targetPoint" />
          </mxGeometry>
        </mxCell>
        <mxCell id="dMHL_w5IgM5WXoV93yeF-27" value="" style="rounded=0;whiteSpace=wrap;html=1;" parent="1" vertex="1">
          <mxGeometry x="160" y="80" width="10" height="330" as="geometry" />
        </mxCell>
        <mxCell id="dMHL_w5IgM5WXoV93yeF-28" value="" style="rounded=0;whiteSpace=wrap;html=1;" parent="1" vertex="1">
          <mxGeometry x="360" y="80" width="10" height="330" as="geometry" />
        </mxCell>
        <mxCell id="dMHL_w5IgM5WXoV93yeF-29" value="" style="rounded=0;whiteSpace=wrap;html=1;" parent="1" vertex="1">
          <mxGeometry x="560" y="80" width="10" height="330" as="geometry" />
        </mxCell>
        <mxCell id="dMHL_w5IgM5WXoV93yeF-30" value="" style="endArrow=classic;html=1;entryX=0.08;entryY=0.95;entryDx=0;entryDy=0;entryPerimeter=0;exitX=0.11;exitY=0.95;exitDx=0;exitDy=0;exitPerimeter=0;" parent="1" edge="1">
          <mxGeometry width="50" height="50" relative="1" as="geometry">
            <mxPoint x="174" y="239" as="sourcePoint" />
            <mxPoint x="168" y="239" as="targetPoint" />
          </mxGeometry>
        </mxCell>
        <mxCell id="dMHL_w5IgM5WXoV93yeF-31" value="" style="endArrow=classic;html=1;entryX=1.2;entryY=0.724;entryDx=0;entryDy=0;entryPerimeter=0;" parent="1" target="dMHL_w5IgM5WXoV93yeF-28" edge="1">
          <mxGeometry width="50" height="50" relative="1" as="geometry">
            <mxPoint x="380" y="319" as="sourcePoint" />
            <mxPoint x="450" y="510" as="targetPoint" />
          </mxGeometry>
        </mxCell>
        <mxCell id="dMHL_w5IgM5WXoV93yeF-32" value="" style="endArrow=classic;html=1;entryX=0.035;entryY=1;entryDx=0;entryDy=0;entryPerimeter=0;" parent="1" edge="1">
          <mxGeometry width="50" height="50" relative="1" as="geometry">
            <mxPoint x="180" y="160" as="sourcePoint" />
            <mxPoint x="170" y="160" as="targetPoint" />
          </mxGeometry>
        </mxCell>
        <mxCell id="uRalmafboagzpujMmKI2-1" value="&lt;font style=&quot;font-size: 24px&quot;&gt;&lt;b&gt;&lt;u&gt;Coach&lt;/u&gt;&lt;/b&gt;&lt;/font&gt;" style="text;html=1;strokeColor=none;fillColor=none;align=center;verticalAlign=middle;whiteSpace=wrap;rounded=0;" vertex="1" parent="1">
          <mxGeometry x="420" y="10" width="40" height="20" as="geometry" />
        </mxCell>
      </root>
    </mxGraphModel>
  </diagram>
</mxfile>
